<?xml version="1.0" encoding="utf-8"?>
<?xml-stylesheet type="text/xsl" href="rss1.xsl"?>
<rss version="2.0" xmlns:atom="http://www.w3.org/2005/Atom" xmlns:content="http://purl.org/rss/1.0/modules/content/" xmlns:dc="http://purl.org/dc/elements/1.1/" xmlns:media="http://search.yahoo.com/mrss/">
<channel>
 <title>Getty</title>
 <link>http://www.gettyimg.com/</link>
 <atom:link href="http://www.gettyimg.com/" rel="self" type="application/rss+xml" />

 
                <item>
                <title><![CDATA[【HD Live Performances】WEB-DL - Madonna Sticky and Sweet Tour 2010 1080p AMZN WEB-DL DDP2.0 H.264-SiGLA]]></title>
                <link><![CDATA[https://sharemania.us/threads/madonna-sticky-and-sweet-tour-2010-1080p-amzn-web-dl-ddp2-0-h-264-sigla.243326/]]></link>
                <description><![CDATA[<article>
<blockquote class="messageText SelectQuoteContainer ugc baseHtml">
<div style="text-align: center"><img src="https://i.ibb.co/Z2JbVL8/Madonna-Sticky-and-Sweet-Tour-2010-1080p-AMZN-WEB-DL-DDP2-0-H-264-Si-GLA.jpg" class="bbCodeImage LbImage" alt="[​IMG]" data-url="https://i.ibb.co/Z2JbVL8/Madonna-Sticky-and-Sweet-Tour-2010-1080p-AMZN-WEB-DL-DDP2-0-H-264-Si-GLA.jpg" style=""><br>
<img src="https://i.ibb.co/2FHhp1F/Madonna-Sticky-and-Sweet-Tour-2010-1080p-AMZN-WEB-DL-DDP2-0-H-264-Si-GLA-mkv-thumbs.jpg" class="bbCodeImage LbImage" alt="[​IMG]" data-url="https://i.ibb.co/2FHhp1F/Madonna-Sticky-and-Sweet-Tour-2010-1080p-AMZN-WEB-DL-DDP2-0-H-264-Si-GLA-mkv-thumbs.jpg" style="">​</div><br>
1. Intro: The Sweet Machine<br>
2. Candy Shop Medley<br>
3. Beat Goes On Medley [Feat. Kanye West]<br>
4. Human Nature<br>
5. Vogue 2008<br>
6. Die Another Day 2008<br>
7. Into The Groove 2008<br>
8. Heartbeat<br>
9. Borderline<br>
10. She's Not Me<br>
11. Music 2008<br>
12. Rain/Here Comes The Rain Again<br>
13. Devil Wouldn't Recognize You<br>
14. Spanish Lesson<br>
15. Miles Away<br>
16. La Isla Bonita Medley<br>
17. Me Darava/Doli Doli<br>
18. You Must Love Me<br>
19. Don't Cry For Me Argentina<br>
20. Get Stupid Medley<br>
21. 4 Minutes [Feat. Justin Timberlake And Timbaland]<br>
22. Like A Prayer 2008<br>
23. Ray Of Light<br>
24. Like A Virgin 2008<br>
25. Hung Up Medley<br>
26. Give It 2 Me<br>
27. Credits<br>
<br>
<br>
<div style="text-align: left">
<div class="bbCodeBlock bbCodeCode">
<div class="type">Code:</div>
<pre>General
Unique ID                                : 61877964843716867863470659502217701289 (0x2E8D4335C1F06E1D7ACCAA6E5DD527A9)
Complete name                            : Madonna.Sticky.and.Sweet.Tour.2010.1080p.AMZN.WEB-DL.DDP2.0.H.264-SiGLA.mkv
Format                                   : Matroska
Format version                           : Version 4
File size                                : 8.44 GiB
Duration                                 : 2 h 5 min
Overall bit rate mode                    : Constant
Overall bit rate                         : 9 639 kb/s
Movie name                               : Madonna.-.Sticky.and.Sweet.Tour.2010.1080p.AMZN.WEB-DL.DDP2.0.H.264-SiGLA
Writing application                      : mkvmerge v62.0.0 ('SiGLA') 64-bit
Writing library                          : libebml v1.4.2 + libmatroska v1.6.4

Video
ID                                       : 1
Format                                   : AVC
Format/Info                              : Advanced Video Codec
Format profile                           : High@L4
Format settings                          : CABAC / 4 Ref Frames
Format settings, CABAC                   : Yes
Format settings, Reference frames        : 4 frames
Codec ID                                 : V_MPEG4/ISO/AVC
Duration                                 : 2 h 5 min
Bit rate mode                            : Constant
Bit rate                                 : 9 413 kb/s
Nominal bit rate                         : 10 000 kb/s
Width                                    : 1 920 pixels
Height                                   : 1 080 pixels
Display aspect ratio                     : 16:9
Frame rate mode                          : Constant
Frame rate                               : 25.000 FPS
Color space                              : YUV
Chroma subsampling                       : 4:2:0
Bit depth                                : 8 bits
Scan type                                : Progressive
Bits/(Pixel*Frame)                       : 0.182
Stream size                              : 8.24 GiB (98%)
Default                                  : Yes
Forced                                   : No
Color range                              : Limited
Color primaries                          : BT.709
Transfer characteristics                 : BT.709
Matrix coefficients                      : BT.709

Audio
ID                                       : 2
Format                                   : E-AC-3
Format/Info                              : Enhanced AC-3
Commercial name                          : Dolby Digital Plus
Codec ID                                 : A_EAC3
Duration                                 : 2 h 5 min
Bit rate mode                            : Constant
Bit rate                                 : 224 kb/s
Channel(s)                               : 2 channels
Channel layout                           : L R
Sampling rate                            : 48.0 kHz
Frame rate                               : 31.250 FPS (1536 SPF)
Compression mode                         : Lossy
Stream size                              : 201 MiB (2%)
Title                                    : English
Language                                 : English
Service kind                             : Complete Main
Default                                  : Yes
Forced                                   : No</pre>
</div></div><br>
<div class="bbCodeBlock bbCodeVfcHH HiddenContent">
<div class="attribution type">Hidden Content:</div>
<blockquote>You must either reply or click 'Like' to see the hidden information contained here.</blockquote>
</div>
<div class="messageTextEndMarker">&nbsp;</div>
</blockquote>
</article>]]></description>
                <author><![CDATA[-C.A.A]]></author>
                </item>

                </channel></rss>